<svg xmlns="http://www.w3.org/2000/svg" width="13.218" height="12.305" viewBox="0 0 13.218 12.305">
  <g id="arrow-back-outline" transform="translate(-5.781 -6.625)">
    <path id="Path_47" data-name="Path 47" d="M11.933,18.93a.674.674,0,0,1-.478-.2L5.979,13.256a.676.676,0,0,1,0-.956l5.476-5.476a.676.676,0,1,1,.956.956l-5,5,5,5a.676.676,0,0,1-.478,1.154Z" fill="#a4a9bc"/>
    <path id="Path_48" data-name="Path 48" d="M18.969,18.1H7.864a.676.676,0,1,1,0-1.352h11.1a.676.676,0,1,1,0,1.352Z" transform="translate(-0.646 -4.649)" fill="#a4a9bc"/>
  </g>
</svg>
