<svg xmlns="http://www.w3.org/2000/svg" width="11.571" height="13.5" viewBox="0 0 11.571 13.5">
  <g id="file-earmark-arrow-down" transform="translate(-4.5 -2.25)">
    <path id="Path_81" data-name="Path 81" d="M6.429,2.25H11.25v.964H6.429a.964.964,0,0,0-.964.964v9.643a.964.964,0,0,0,.964.964h7.714a.964.964,0,0,0,.964-.964V7.071h.964v6.75a1.929,1.929,0,0,1-1.929,1.929H6.429A1.929,1.929,0,0,1,4.5,13.821V4.179A1.929,1.929,0,0,1,6.429,2.25Z" fill="#a4a9bc"/>
    <path id="Path_82" data-name="Path 82" d="M20.25,5.625V2.25l4.821,4.821H21.7A1.446,1.446,0,0,1,20.25,5.625Z" transform="translate(-9)" fill="#a4a9bc"/>
    <path id="Path_83" data-name="Path 83" d="M-2.324-.293a1.06,1.06,0,0,1-.545-.142A1.04,1.04,0,0,1-3.253-.82a1.065,1.065,0,0,1-.14-.541,1.061,1.061,0,0,1,.14-.543,1.028,1.028,0,0,1,.383-.381,1.073,1.073,0,0,1,.545-.14,1.087,1.087,0,0,1,.439.088.975.975,0,0,1,.349.256l-.258.258a.615.615,0,0,0-.23-.17.752.752,0,0,0-.3-.058.669.669,0,0,0-.345.088.633.633,0,0,0-.237.243.724.724,0,0,0-.086.358A.724.724,0,0,0-2.906-1a.649.649,0,0,0,.237.246.657.657,0,0,0,.345.09.752.752,0,0,0,.3-.058A.654.654,0,0,0-1.79-.9l.254.258a.975.975,0,0,1-.347.254A1.08,1.08,0,0,1-2.324-.293Zm1.822,0A1.141,1.141,0,0,1-.827-.338,1.073,1.073,0,0,1-1.11-.467a.965.965,0,0,1-.224-.2l.25-.25a.714.714,0,0,0,.258.2A.78.78,0,0,0-.5-.646a.525.525,0,0,0,.28-.062.2.2,0,0,0,.1-.174A.209.209,0,0,0-.2-1.057a.665.665,0,0,0-.2-.1Q-.528-1.2-.668-1.243a1.477,1.477,0,0,1-.265-.106.566.566,0,0,1-.2-.177.5.5,0,0,1-.08-.3.565.565,0,0,1,.09-.321.585.585,0,0,1,.252-.209.94.94,0,0,1,.39-.073,1.038,1.038,0,0,1,.429.084.751.751,0,0,1,.308.252L0-1.839a.578.578,0,0,0-.213-.172A.66.66,0,0,0-.5-2.072a.467.467,0,0,0-.256.058.183.183,0,0,0-.088.162.185.185,0,0,0,.078.159.7.7,0,0,0,.2.095l.265.08a1.32,1.32,0,0,1,.263.11.59.59,0,0,1,.2.185.531.531,0,0,1,.08.306.559.559,0,0,1-.2.457A.839.839,0,0,1-.5-.293ZM1.389-.336.45-2.382H.881L1.634-.655h-.25l.758-1.727h.414L1.617-.336Z" transform="translate(10.786 13.593)" fill="#a4a9bc"/>
  </g>
</svg>
