<svg xmlns="http://www.w3.org/2000/svg" width="9" height="9.364" viewBox="0 0 9 9.364">
  <g id="Group_215" data-name="Group 215" transform="translate(-4 -3.636)">
    <g id="_icon__calendar_appointment_date_" data-name="🦆 icon _calendar appointment date_"
      transform="translate(4 3.636)">
      <path id="Path_9" data-name="Path 9"
        d="M1.408,2.45H6.493a.959.959,0,0,1,.958.958V8.493a.959.959,0,0,1-.958.958H1.408A.959.959,0,0,1,.45,8.493V3.408A.959.959,0,0,1,1.408,2.45ZM6.493,8.989a.5.5,0,0,0,.5-.5V3.408a.5.5,0,0,0-.5-.5H1.408a.5.5,0,0,0-.5.5V8.493a.5.5,0,0,0,.5.5Z"
        transform="translate(-0.45 -1.723)" fill="#fff" />
      <path id="Path_10" data-name="Path 10" d="M7.22,8.912H.681a.231.231,0,0,1,0-.462H7.22a.231.231,0,1,1,0,.462Z"
        transform="translate(-0.45 -5.544)" fill="#fff" />
      <path id="Path_11" data-name="Path 11"
        d="M13.681,2.365a.231.231,0,0,1-.231-.231V.681a.231.231,0,1,1,.462,0V2.134A.231.231,0,0,1,13.681,2.365Z"
        transform="translate(-8.728 -0.45)" fill="#fff" />
      <path id="Path_12" data-name="Path 12"
        d="M5.681,2.365a.231.231,0,0,1-.231-.231V.681a.231.231,0,1,1,.462,0V2.134A.231.231,0,0,1,5.681,2.365Z"
        transform="translate(-3.634 -0.45)" fill="#fff" />
    </g>
    <g id="Ellipse_31" data-name="Ellipse 31" transform="translate(9 9)" fill="#fff" stroke="#ea1111"
      stroke-width="0.25">
      <circle cx="2" cy="2" r="2" stroke="none" />
      <circle cx="2" cy="2" r="1.875" fill="none" />
    </g>
    <path id="add" d="M10.1,9.855V9H9.855v.855H9V10.1h.855v.855H10.1V10.1h.855V9.855Z"
      transform="translate(-3.109 11) rotate(-45)" fill="#ea1111" />
  </g>
</svg>