<svg xmlns="http://www.w3.org/2000/svg" width="7.001" height="7.727" viewBox="0 0 7.001 7.727">
  <g id="_icon__calendar_appointment_date_" data-name="🦆 icon _calendar appointment date_" transform="translate(0.55 0.55)">
    <path id="Path_9" data-name="Path 9" d="M1.408,2.45H6.493a.959.959,0,0,1,.958.958V8.493a.959.959,0,0,1-.958.958H1.408A.959.959,0,0,1,.45,8.493V3.408A.959.959,0,0,1,1.408,2.45ZM6.493,8.989a.5.5,0,0,0,.5-.5V3.408a.5.5,0,0,0-.5-.5H1.408a.5.5,0,0,0-.5.5V8.493a.5.5,0,0,0,.5.5Z" transform="translate(-1 -2.273)" fill="#fff"/>
    <path id="Path_10" data-name="Path 10" d="M7.22,8.912H.681a.231.231,0,0,1,0-.462H7.22a.231.231,0,1,1,0,.462Z" transform="translate(-1 -6.094)" fill="#fff"/>
    <path id="Path_11" data-name="Path 11" d="M13.681,2.365a.231.231,0,0,1-.231-.231V.681a.231.231,0,1,1,.462,0V2.134A.231.231,0,0,1,13.681,2.365Z" transform="translate(-9.278 -1)" fill="#fff"/>
    <path id="Path_12" data-name="Path 12" d="M5.681,2.365a.231.231,0,0,1-.231-.231V.681a.231.231,0,1,1,.462,0V2.134A.231.231,0,0,1,5.681,2.365Z" transform="translate(-4.184 -1)" fill="#fff"/>
  </g>
</svg>
