<svg xmlns="http://www.w3.org/2000/svg" width="12.819" height="21.365" viewBox="0 0 12.819 21.365">
  <path id="bx-dollar"
    d="M19.681,9.944h2.137c0-3.031-2.943-4.413-5.341-4.732V3H14.339V5.213C11.941,5.531,9,6.913,9,9.944c0,2.891,2.848,4.394,5.341,4.732v5.309c-1.547-.268-3.2-1.094-3.2-2.564H9c0,2.765,2.59,4.4,5.341,4.739v2.2h2.137V22.154c2.4-.318,5.341-1.7,5.341-4.732s-2.943-4.413-5.341-4.732V7.38C17.9,7.635,19.681,8.385,19.681,9.944Zm-8.546,0c0-1.559,1.784-2.309,3.2-2.564v5.127C12.875,12.236,11.135,11.437,11.135,9.944Zm8.546,7.478c0,1.559-1.784,2.309-3.2,2.564V14.858C17.9,15.113,19.681,15.863,19.681,17.422Z"
    transform="translate(-8.998 -3)" fill="#fff" />
</svg>