<svg xmlns="http://www.w3.org/2000/svg" width="9.659" height="16.099" viewBox="0 0 9.659 16.099">
  <path id="bx-dollar"
    d="M17.047,8.232h1.61c0-2.284-2.218-3.325-4.025-3.565V3h-1.61V4.667C11.215,4.907,9,5.949,9,8.233c0,2.178,2.146,3.311,4.025,3.566v4c-1.166-.2-2.415-.824-2.415-1.932H9c0,2.084,1.952,3.315,4.025,3.571V19.1h1.61V17.433c1.807-.24,4.025-1.282,4.025-3.566s-2.218-3.325-4.025-3.565v-4C15.7,6.492,17.047,7.057,17.047,8.232Zm-6.44,0c0-1.175,1.344-1.74,2.415-1.932v3.863C11.919,9.96,10.608,9.357,10.608,8.232Zm6.44,5.635c0,1.175-1.344,1.74-2.415,1.932V11.935c1.071.192,2.415.757,2.415,1.932Z"
    transform="translate(-8.998 -3)" fill="#fff" />
</svg>