<svg xmlns="http://www.w3.org/2000/svg" width="8.814" height="11.217" viewBox="0 0 8.814 11.217">
  <g id="download-outline" transform="translate(-5.625 -2.25)">
    <path id="Path_37" data-name="Path 37" d="M13.036,19.263H7.027a1.4,1.4,0,0,1-1.4-1.4V12.652a1.4,1.4,0,0,1,1.4-1.4h1a.4.4,0,0,1,0,.8h-1a.6.6,0,0,0-.6.6V17.86a.6.6,0,0,0,.6.6h6.009a.6.6,0,0,0,.6-.6V12.652a.6.6,0,0,0-.6-.6h-1a.4.4,0,0,1,0-.8h1a1.4,1.4,0,0,1,1.4,1.4V17.86A1.4,1.4,0,0,1,13.036,19.263Z" transform="translate(0 -5.795)" fill="#fff"/>
    <path id="Path_38" data-name="Path 38" d="M13.654,20.8a.4.4,0,0,1-.283-.117l-2-2a.4.4,0,0,1,.567-.567l1.72,1.72,1.72-1.72a.4.4,0,0,1,.567.567l-2,2A.4.4,0,0,1,13.654,20.8Z" transform="translate(-3.622 -10.141)" fill="#fff"/>
    <path id="Path_39" data-name="Path 39" d="M17.276,10.262a.4.4,0,0,1-.4-.4V2.651a.4.4,0,1,1,.8,0V9.862A.4.4,0,0,1,17.276,10.262Z" transform="translate(-7.244)" fill="#fff"/>
  </g>
</svg>
