<svg xmlns="http://www.w3.org/2000/svg" width="11.571" height="13.5" viewBox="0 0 11.571 13.5">
  <g id="file-earmark-arrow-down" transform="translate(-4.5 -2.25)">
    <path id="Path_81" data-name="Path 81" d="M6.429,2.25H11.25v.964H6.429a.964.964,0,0,0-.964.964v9.643a.964.964,0,0,0,.964.964h7.714a.964.964,0,0,0,.964-.964V7.071h.964v6.75a1.929,1.929,0,0,1-1.929,1.929H6.429A1.929,1.929,0,0,1,4.5,13.821V4.179A1.929,1.929,0,0,1,6.429,2.25Z" fill="#a4a9bc"/>
    <path id="Path_82" data-name="Path 82" d="M20.25,5.625V2.25l4.821,4.821H21.7A1.446,1.446,0,0,1,20.25,5.625Z" transform="translate(-9)" fill="#a4a9bc"/>
    <path id="Path_85" data-name="Path 85" d="M-.43.48A.719.719,0,0,1-1,.26a.844.844,0,0,1-.15-.65l.06-.62a.458.458,0,0,0-.035-.28.21.21,0,0,0-.2-.09h-.14v-.345h.14a.208.208,0,0,0,.2-.092A.456.456,0,0,0-1.1-2.1l-.06-.6A.845.845,0,0,1-1-3.353.723.723,0,0,1-.43-3.57h.25v.355H-.39A.386.386,0,0,0-.707-3.1a.529.529,0,0,0-.067.38l.05.55a.963.963,0,0,1-.015.332.427.427,0,0,1-.143.227.812.812,0,0,1-.3.145v-.16a.678.678,0,0,1,.3.13.427.427,0,0,1,.143.228.963.963,0,0,1,.015.332l-.05.565A.545.545,0,0,0-.7.008.383.383,0,0,0-.39.12h.21V.48Zm.86,0H.18V.12H.39A.383.383,0,0,0,.705.008.545.545,0,0,0,.775-.37L.725-.935a1.1,1.1,0,0,1,.018-.332A.413.413,0,0,1,.883-1.5a.678.678,0,0,1,.3-.13v.16a.812.812,0,0,1-.3-.145.413.413,0,0,1-.14-.227A1.1,1.1,0,0,1,.725-2.17l.05-.55A.529.529,0,0,0,.708-3.1.386.386,0,0,0,.39-3.215H.18V-3.57H.43a.731.731,0,0,1,.578.217.825.825,0,0,1,.147.653l-.06.6a.456.456,0,0,0,.035.278.208.208,0,0,0,.195.092h.14v.345h-.14a.21.21,0,0,0-.195.09.458.458,0,0,0-.035.28l.06.62A.844.844,0,0,1,1,.26.719.719,0,0,1,.43.48Z" transform="translate(10.286 12.57)" fill="#a4a9bc"/>
  </g>
</svg>
