<svg xmlns="http://www.w3.org/2000/svg" width="17.133" height="17.972" viewBox="0 0 17.133 17.972">
  <g id="Group_48" data-name="Group 48" transform="translate(-347.934 -151.514)">
    <g id="user" transform="translate(341.184 151.547)">
      <path id="Path_32" data-name="Path 32"
        d="M14.047,3.371a2.8,2.8,0,1,1-2.8,2.8,2.8,2.8,0,0,1,2.8-2.8m0-1.121a3.922,3.922,0,1,0,3.922,3.922A3.922,3.922,0,0,0,14.047,2.25Z"
        transform="translate(-1.694)" fill="#fff" />
      <path id="Path_33" data-name="Path 33"
        d="M17.956,26.974H16.835v-2.8a2.8,2.8,0,0,0-2.8-2.8H10.672a2.8,2.8,0,0,0-2.8,2.8v2.8H6.75v-2.8a3.922,3.922,0,0,1,3.922-3.922h3.362a3.922,3.922,0,0,1,3.922,3.922Z"
        transform="translate(0 -9.035)" fill="#fff" />
    </g>
    <path id="diamonds"
      d="M0,2.628q.072-.036.2-.108a5.616,5.616,0,0,0,.475-.328,5.7,5.7,0,0,0,.639-.549,3.221,3.221,0,0,0,.352-.421A4.157,4.157,0,0,0,1.943.778q.11-.208.2-.387T2.258.108L2.3,0a1.111,1.111,0,0,0,.036.11q.026.069.118.275t.2.4a4.4,4.4,0,0,0,.277.434,3.348,3.348,0,0,0,.357.426,5.423,5.423,0,0,0,.616.539,4.26,4.26,0,0,0,.513.344l.18.1q-.072.036-.2.11t-.475.328a5.182,5.182,0,0,0-.634.547,3.378,3.378,0,0,0-.354.421,3.94,3.94,0,0,0-.28.444q-.11.208-.2.387t-.121.282L2.3,5.256l-.041-.11q-.026-.069-.118-.275t-.2-.4a4.663,4.663,0,0,0-.274-.434,3.2,3.2,0,0,0-.354-.426A5.656,5.656,0,0,0,.69,3.074a5.669,5.669,0,0,0-.506-.346A1.8,1.8,0,0,0,0,2.628Z"
      transform="translate(360.473 151.514)" fill="#fff" />
    <path id="diamonds-2" data-name="diamonds"
      d="M0,1.525Q.042,1.5.116,1.462a3.258,3.258,0,0,0,.275-.191A3.307,3.307,0,0,0,.762.953a1.869,1.869,0,0,0,.2-.244A2.412,2.412,0,0,0,1.127.451Q1.191.331,1.24.226T1.31.063L1.334,0a.645.645,0,0,0,.021.064q.015.04.069.159t.115.231A2.556,2.556,0,0,0,1.7.706a1.942,1.942,0,0,0,.207.247,3.146,3.146,0,0,0,.357.313,2.472,2.472,0,0,0,.3.2l.1.06q-.042.021-.116.064t-.275.191a3.006,3.006,0,0,0-.368.317,1.96,1.96,0,0,0-.205.244,2.286,2.286,0,0,0-.162.258q-.064.121-.113.225t-.07.164l-.021.063L1.31,2.985q-.015-.04-.069-.159T1.127,2.6a2.706,2.706,0,0,0-.159-.252A1.858,1.858,0,0,0,.762,2.1,3.281,3.281,0,0,0,.4,1.784a3.289,3.289,0,0,0-.293-.2A1.042,1.042,0,0,0,0,1.525Z"
      transform="translate(359.14 156.77)" fill="#fff" />
  </g>
</svg>