<svg xmlns="http://www.w3.org/2000/svg" width="42" height="42" viewBox="0 0 42 42">
  <g id="Facility_Selector" data-name="Facility Selector" transform="translate(-1473.863 -32)">
    <g id="Rectangle_4" data-name="Rectangle 4" transform="translate(1473.863 32)" fill="#fff" stroke="#764af3" stroke-width="1" opacity="0">
      <rect width="42" height="42" rx="21" stroke="none"/>
      <rect x="0.5" y="0.5" width="41" height="41" rx="20.5" fill="none"/>
    </g>
    <g id="_icon__notification_bell_alarm_" data-name="🦆 icon _notification bell alarm_" transform="translate(1483.795 41.191)">
      <path id="Path_28" data-name="Path 28" d="M11.068.3A8,8,0,0,1,18.95,8.389V9.594a13.014,13.014,0,0,0,2,6.952l.761,1.207a.815.815,0,0,1,.03.814.774.774,0,0,1-.683.416H1.077a.774.774,0,0,1-.683-.416.815.815,0,0,1,.03-.814l.761-1.207a13.013,13.013,0,0,0,2-6.952V8.389A8,8,0,0,1,11.068.3Zm8.563,17.089A14.637,14.637,0,0,1,17.4,9.594V8.389a6.42,6.42,0,0,0-6.328-6.494A6.42,6.42,0,0,0,4.741,8.389V9.594a14.635,14.635,0,0,1-2.235,7.795Z" transform="translate(0 0)" fill="#764af3"/>
      <path id="Path_29" data-name="Path 29" d="M10,21.034a2.048,2.048,0,0,1-1.52-.677.7.7,0,0,1,1.041-.937.645.645,0,0,0,.959,0,.7.7,0,0,1,1.041.937A2.048,2.048,0,0,1,10,21.034Z" transform="translate(1.068 2.284)" fill="#764af3"/>
    </g>
    <g id="Ellipse_5" data-name="Ellipse 5" transform="translate(1498.863 44)" fill="#764af3" stroke="#fff" stroke-width="1">
      <circle cx="3" cy="3" r="3" stroke="none"/>
      <circle cx="3" cy="3" r="2.5" fill="none"/>
    </g>
  </g>
</svg>
