<svg xmlns="http://www.w3.org/2000/svg" width="14.836" height="21.216" viewBox="0 0 14.836 21.216">
  <g id="Group_49" data-name="Group 49" transform="translate(-347.934 -148.27)">
    <g id="user" transform="translate(341.184 151.547)">
      <path id="Path_32" data-name="Path 32"
        d="M14.047,3.371a2.8,2.8,0,1,1-2.8,2.8,2.8,2.8,0,0,1,2.8-2.8m0-1.121a3.922,3.922,0,1,0,3.922,3.922A3.922,3.922,0,0,0,14.047,2.25Z"
        transform="translate(-1.694)" fill="#fff" />
      <path id="Path_33" data-name="Path 33"
        d="M17.956,26.974H16.835v-2.8a2.8,2.8,0,0,0-2.8-2.8H10.672a2.8,2.8,0,0,0-2.8,2.8v2.8H6.75v-2.8a3.922,3.922,0,0,1,3.922-3.922h3.362a3.922,3.922,0,0,1,3.922,3.922Z"
        transform="translate(0 -9.035)" fill="#fff" />
    </g>
    <g id="return-up-back-outline" transform="translate(349.464 138.145)">
      <path id="Path_49" data-name="Path 49"
        d="M4.224,14.073a.394.394,0,0,1-.279-.116L2.366,12.378a.4.4,0,0,1,0-.558l1.579-1.579A.395.395,0,1,1,4.5,10.8L3.2,12.1l1.3,1.3a.395.395,0,0,1-.279.674Z"
        fill="#fff" />
      <path id="Path_50" data-name="Path 50"
        d="M13.641,18.573a.4.4,0,0,1-.395-.395v-.493a2.249,2.249,0,0,0-2.221-2.27H3.77a.395.395,0,1,1,0-.79h7.255a2.96,2.96,0,0,1,2.135.909,3.068,3.068,0,0,1,.876,2.151v.493A.4.4,0,0,1,13.641,18.573Z"
        transform="translate(-0.73 -2.921)" fill="#fff" />
    </g>
  </g>
</svg>