<svg xmlns="http://www.w3.org/2000/svg" width="11.571" height="13.5" viewBox="0 0 11.571 13.5">
  <g id="file-earmark-arrow-down" transform="translate(-4.5 -2.25)">
    <path id="Path_81" data-name="Path 81" d="M6.429,2.25H11.25v.964H6.429a.964.964,0,0,0-.964.964v9.643a.964.964,0,0,0,.964.964h7.714a.964.964,0,0,0,.964-.964V7.071h.964v6.75a1.929,1.929,0,0,1-1.929,1.929H6.429A1.929,1.929,0,0,1,4.5,13.821V4.179A1.929,1.929,0,0,1,6.429,2.25Z" fill="#a4a9bc"/>
    <path id="Path_82" data-name="Path 82" d="M20.25,5.625V2.25l4.821,4.821H21.7A1.446,1.446,0,0,1,20.25,5.625Z" transform="translate(-9)" fill="#a4a9bc"/>
    <path id="Path_84" data-name="Path 84" d="M1.475,1.112.389-.415.264-.532-1.109-2.375h.8L.682-1.017l.125.1L2.275,1.112Zm-2.65,0L.264-.826l.374.484L-.4,1.112ZM.858-.54.477-1.01l.962-1.365h.771Z" transform="translate(9.736 11.694)" fill="#a4a9bc"/>
  </g>
</svg>
